<svg version="1.1" xmlns="http://www.w3.org/2000/svg" xmlns:xlink="http://www.w3.org/1999/xlink" x="0px" y="0px"
	 viewBox="350 320 300 300" style="enable-background:new 0 0 1000 1000;" xml:space="preserve">
<g>
	<g>
		<path d="M470.9,428.8l-14-13.3c1.6-3,2.7-6.3,2.7-9.9c0-11.5-9.3-20.8-20.8-20.8s-20.8,9.3-20.8,20.8c0,11.5,9.3,20.8,20.8,20.8
			c4,0,7.8-1.2,11-3.2l14,13.2C465.9,433.6,468.2,431,470.9,428.8L470.9,428.8z M470.9,428.8"/>
		<path d="M530.2,427.1l18.6-31.3c1.8,0.5,3.7,0.9,5.7,0.9c11.5,0,20.8-9.3,20.8-20.8c0-11.5-9.3-20.8-20.8-20.8
			s-20.8,9.3-20.8,20.8c0,5.7,2.3,10.9,6,14.6l-18.6,31.2C524.4,423.2,527.4,425,530.2,427.1L530.2,427.1z M530.2,427.1"/>
		<path d="M594.4,453.3c-8.9,0-16.5,5.7-19.4,13.6l-25.9-2.6c0,0.2,0,0.4,0,0.6c0,3.4-0.4,6.7-1,9.9l25.8,2.5
			c1.6,9.9,10.1,17.5,20.5,17.5c11.5,0,20.8-9.3,20.8-20.8C615.2,462.6,605.8,453.3,594.4,453.3L594.4,453.3z M594.4,453.3"/>
		<path d="M523,535l-5.8-25.3c-3.3,1.1-6.7,1.9-10.2,2.3l5.8,25.3c-6.7,3.5-11.2,10.3-11.2,18.4c0,11.5,9.3,20.8,20.8,20.8
			c11.5,0,20.8-9.3,20.8-20.8C543.2,544.5,534.2,535.4,523,535L523,535z M523,535"/>
		<path d="M455.2,475L423,485.8c-3.7-5.7-10.1-9.4-17.4-9.4c-11.5,0-20.8,9.3-20.8,20.8s9.3,20.8,20.8,20.8s20.8-9.3,20.8-20.8
			c0-0.5-0.1-0.9-0.1-1.4l32.3-10.8C457.1,481.7,455.9,478.4,455.2,475L455.2,475z M455.2,475"/>
		<path d="M537.2,464.9c0,19.7-15.9,35.6-35.6,35.6c-19.7,0-35.6-15.9-35.6-35.6c0-19.7,16-35.6,35.6-35.6
			C521.3,429.3,537.2,445.3,537.2,464.9L537.2,464.9z M537.2,464.9"/>
	</g>
</g>
</svg>
