<?xml version="1.0" encoding="utf-8"?>
<!-- Generator: Adobe Illustrator 19.2.0, SVG Export Plug-In . SVG Version: 6.00 Build 0)  -->
<svg version="1.1" xmlns="http://www.w3.org/2000/svg" xmlns:xlink="http://www.w3.org/1999/xlink" x="0px" y="0px"
	 viewBox="350 320 300 300" style="enable-background:new 0 0 1000 1000;" xml:space="preserve">
<g>
	<path d="M506.1,345.2c-13.8,0-26.9,3.1-38.5,8.6c-30.8,14.3-52.2,45.5-52.2,81.7v15L397,485.6c-4.6,8.9-0.2,16.1,9.7,16.1h8.7V535
		c0,10.4,8.5,19,19,19l26-3.9l0,26v0.2c0.1,3.3,3,5.6,6.4,4.9l93.8-16.6c3.5-0.6,6.4-4.1,6.4-7.6v-55.1c18-16.5,29.2-40.2,29.2-66.5
		C596.3,385.5,555.9,345.2,506.1,345.2z M549.2,455.9h-29.9v29.9h-29.9v-29.9h-29.9v-37.3h29.9v-29.9h29.9v29.9h29.9V455.9z"/>
</g>
</svg>
