<?xml version="1.0" encoding="utf-8"?>
<!-- Generator: Adobe Illustrator 19.2.0, SVG Export Plug-In . SVG Version: 6.00 Build 0)  -->
<svg version="1.1" xmlns="http://www.w3.org/2000/svg" xmlns:xlink="http://www.w3.org/1999/xlink" x="0px" y="0px"
	 viewBox="350 320 300 300" style="enable-background:new 0 0 1000 1000;" xml:space="preserve">

<g>
	<g>
		<g>
			<path d="M422.4,386.1L422.4,386.1c-2.1,0-4.1,0.8-5.6,2.3c-1.5,1.5-2.4,3.5-2.4,5.7V514c0,4.4,3.6,8,8,8
				c18.6,0,49.8,3.9,71.3,26.4V422.9c0-1.5-0.4-2.9-1.1-4C475,390.4,441.1,386.1,422.4,386.1L422.4,386.1z M422.4,386.1"/>
			<path d="M585.5,514V394.1c0-2.1-0.8-4.2-2.4-5.7c-1.5-1.5-3.5-2.3-5.6-2.3h0c-18.7,0-52.6,4.4-70.2,32.8c-0.7,1.2-1.1,2.6-1.1,4
				v125.5c21.5-22.5,52.7-26.4,71.3-26.4C581.9,522,585.5,518.4,585.5,514L585.5,514z M585.5,514"/>
			<path d="M603.7,413.7H598V514c0,11.2-9.1,20.4-20.4,20.4c-15.8,0-41.8,3.1-60.3,20.6c31.9-7.8,65.5-2.7,84.7,1.6
				c2.4,0.5,4.9,0,6.8-1.5c1.9-1.5,3-3.8,3-6.2V421.7C611.7,417.3,608.2,413.7,603.7,413.7L603.7,413.7z M603.7,413.7"/>
			<path d="M402,514V413.7h-5.8c-4.4,0-8,3.6-8,8v127.1c0,2.4,1.1,4.7,3,6.2c1.9,1.5,4.4,2.1,6.8,1.5c19.2-4.4,52.8-9.4,84.7-1.6
				c-18.4-17.4-44.5-20.5-60.3-20.6C411.2,534.4,402,525.2,402,514L402,514z M402,514"/>
		</g>
	</g>
</g>
</svg>
